<?xml version="1.0" encoding="UTF-8"?>
<svg version="1.1" xmlns="http://www.w3.org/2000/svg" width="500" height="500">
<path d="M0 0 C165 0 330 0 500 0 C500 165 500 330 500 500 C335 500 170 500 0 500 C0 335 0 170 0 0 Z " fill="#274082" transform="translate(0,0)"/>
<path d="M0 0 C0.66 0 1.32 0 2 0 C2.0297226 4.16665093 2.04703495 8.3332737 2.0625 12.5 C2.07087891 13.65371094 2.07925781 14.80742188 2.08789062 15.99609375 C2.12937592 31.01377051 0.91511919 45.42784832 -1.6875 60.1875 C-1.82038422 60.95101776 -1.95326843 61.71453552 -2.09017944 62.50119019 C-4.27162298 74.94691498 -7.01161325 86.99679116 -11 99 C-11.31807617 99.98661621 -11.63615234 100.97323242 -11.96386719 101.98974609 C-20.63806687 128.79903658 -31.69635115 155.24294597 -47 179 C-46.42967041 179.14622803 -45.85934082 179.29245605 -45.27172852 179.44311523 C-42.70105211 180.10434115 -40.13177426 180.77084771 -37.5625 181.4375 C-36.66466797 181.66759766 -35.76683594 181.89769531 -34.84179688 182.13476562 C-33.98779297 182.35712891 -33.13378906 182.57949219 -32.25390625 182.80859375 C-31.46314697 183.01282959 -30.6723877 183.21706543 -29.85766602 183.42749023 C-28 184 -28 184 -27 185 C-26.39378095 191.7383579 -26.81052022 197.01972541 -30 203 C-30.33 202.01 -30.66 201.02 -31 200 C-31.93199219 199.87882813 -32.86398437 199.75765625 -33.82421875 199.6328125 C-42.23420132 198.52735473 -50.62164684 197.3281032 -59 196 C-59.23847656 196.70253906 -59.47695313 197.40507812 -59.72265625 198.12890625 C-61.22554565 201.5069604 -63.14845681 204.033162 -65.4375 206.9375 C-65.87199463 207.49236084 -66.30648926 208.04722168 -66.75415039 208.61889648 C-68.16400861 210.4169365 -69.58194386 212.20842103 -71 214 C-72.00060465 215.27296245 -73.00060101 216.54640327 -74 217.8203125 C-75.44203936 219.65832653 -76.88480587 221.49570736 -78.33178711 223.32983398 C-80.59095889 226.19379052 -82.82852043 229.06886092 -85 232 C-55.92224503 229.6211955 -32.23192715 221.60132673 -12.6953125 199.01953125 C-10.7566831 196.71015014 -8.84593616 194.38433421 -7 192 C-9.40002536 209.08103155 -19.1328314 223.7898201 -32.62255859 234.25927734 C-41.08879859 240.448715 -50.13895993 244.55363876 -60 248 C-60.90621094 248.31710937 -61.81242188 248.63421875 -62.74609375 248.9609375 C-70.8574731 251.58253531 -78.95389785 253.09129925 -87.4921875 252.95703125 C-98.63390611 252.35249144 -98.63390611 252.35249144 -108.6484375 256.26171875 C-111.35289374 259.03814232 -113.67320775 261.90468695 -116 265 C-117.35778788 266.27106785 -118.75108058 267.50601761 -120.1875 268.6875 C-122.86831122 270.97215895 -125.35938041 273.34739297 -127.8125 275.875 C-131.67557358 279.79078609 -135.82530173 283.23213154 -140.11328125 286.671875 C-142.93022926 288.94373022 -145.68282196 291.27827851 -148.4375 293.625 C-160.66447556 303.824705 -173.61176855 313.18530899 -186.70776367 322.23193359 C-187.36236572 322.68648926 -188.01696777 323.14104492 -188.69140625 323.609375 C-189.26060791 324.00092773 -189.82980957 324.39248047 -190.41625977 324.79589844 C-192.09849618 326.07488564 -193.53993913 327.47516392 -195 329 C-186.7029057 337.5161039 -178.41752213 345.71134303 -169 353 C-167.61501791 354.10047159 -166.23098035 355.20213249 -164.84765625 356.3046875 C-155.52290985 363.69522655 -146.00748063 370.56756889 -136 377 C-135.01 377.66 -134.02 378.32 -133 379 C-127.80242799 378.89698506 -123.81581496 375.51968018 -119.6875 372.6875 C-118.89786865 372.15205566 -118.1082373 371.61661133 -117.29467773 371.06494141 C-106.10317934 363.41307451 -95.26267203 355.49827244 -85.36328125 346.21484375 C-83.34888468 344.32697126 -81.29614125 342.53013714 -79.1875 340.75 C-70.17682001 332.91219778 -61.59335946 324.21600681 -54 315 C-53.55366211 314.46745605 -53.10732422 313.93491211 -52.64746094 313.38623047 C-29.25341867 285.44624955 -10.14667488 254.04738445 3 220 C3.51022705 218.67935547 3.51022705 218.67935547 4.03076172 217.33203125 C14.36572182 190.30580088 22.14725068 161.32564584 23.81689453 132.31152344 C24.0230372 129.70917838 24.40330996 127.15363919 24.77734375 124.5703125 C25.72417474 116.65647934 25.72417474 116.65647934 24 109 C19.34088763 104.08735549 13.05806323 101.38688197 6.85766602 98.90356445 C5 98 5 98 4 96 C4.38964844 93.64013672 4.38964844 93.64013672 5.109375 90.6796875 C5.36831543 89.59349121 5.62725586 88.50729492 5.89404297 87.38818359 C6.17650879 86.22883301 6.45897461 85.06948242 6.75 83.875 C9.11080795 73.95250643 11.26902626 64.05179488 13 54 C16.78974331 55.42656395 20.25926779 57.15775642 23.796875 59.125 C25.47100464 60.05445435 25.47100464 60.05445435 27.17895508 61.00268555 C28.36944643 61.66820121 29.55979205 62.33397763 30.75 63 C31.35137787 63.33536774 31.95275574 63.67073547 32.57235718 64.01626587 C40.02479586 68.17242166 47.45490789 72.36504068 54.8125 76.6875 C55.79524902 77.26467773 55.79524902 77.26467773 56.79785156 77.85351562 C58.5407196 78.88762347 60.27081817 79.94316594 62 81 C63.12792969 81.51691406 64.25585938 82.03382813 65.41796875 82.56640625 C68.4208313 85.39663828 68.42961361 86.05213176 68.65625 90.015625 C68.63800099 92.09432247 68.58349835 94.17290005 68.5 96.25 C68.47518555 97.36391113 68.45037109 98.47782227 68.42480469 99.62548828 C67.45880245 134.20153823 62.91367441 170.07592498 52 203 C51.65308105 204.05703125 51.30616211 205.1140625 50.94873047 206.203125 C45.68908972 222.12894009 39.96604876 237.73305356 33 253 C32.64615234 253.78987305 32.29230469 254.57974609 31.92773438 255.39355469 C19.9674818 282.03627454 4.41355341 307.32225527 -14 330 C-14.75539063 330.94617188 -15.51078125 331.89234375 -16.2890625 332.8671875 C-20.58860121 338.20097951 -25.04171283 343.36172035 -29.6640625 348.41796875 C-31.55704061 350.51037432 -33.40437488 352.62864268 -35.24609375 354.765625 C-39.13148889 359.21477723 -43.25069938 363.39831036 -47.4375 367.5625 C-48.14970703 368.27857422 -48.86191406 368.99464844 -49.59570312 369.73242188 C-54.23272683 374.36102229 -59.00936087 378.75619184 -64 383 C-64.63703857 383.54374268 -65.27407715 384.08748535 -65.93041992 384.64770508 C-81.12133089 397.52158563 -97.08363244 409.20971198 -113.98486328 419.7421875 C-115.32900617 420.58117758 -116.6685596 421.42756529 -118.00341797 422.28125 C-119.88533266 423.48057826 -121.78244642 424.65037637 -123.6875 425.8125 C-124.76386719 426.47894531 -125.84023437 427.14539063 -126.94921875 427.83203125 C-130 429 -130 429 -132.87109375 428.5078125 C-136.86425076 426.58351961 -140.61580861 424.40737832 -144.375 422.0625 C-145.16447021 421.57378418 -145.95394043 421.08506836 -146.76733398 420.58154297 C-178.27911958 400.91072154 -208.99540032 376.65216097 -233.1171875 348.21875 C-234.60050772 346.47077099 -236.1117041 344.74644641 -237.6328125 343.03125 C-245.76393673 333.81769187 -252.97571309 324.0748846 -260 314 C-260.7724707 312.90365234 -260.7724707 312.90365234 -261.56054688 311.78515625 C-263.01168555 309.71957148 -264.44650043 307.64378649 -265.875 305.5625 C-266.31021973 304.94189697 -266.74543945 304.32129395 -267.19384766 303.68188477 C-268.3671875 301.94140625 -268.3671875 301.94140625 -270 299 C-269 296 -269 296 -266.89306641 294.79248047 C-265.97187012 294.40463379 -265.05067383 294.01678711 -264.1015625 293.6171875 C-263.07426025 293.17689209 -262.04695801 292.73659668 -260.98852539 292.28295898 C-259.87856201 291.81833252 -258.76859863 291.35370605 -257.625 290.875 C-255.3233956 289.88602808 -253.02262067 288.89512366 -250.72265625 287.90234375 C-249.57941895 287.4110498 -248.43618164 286.91975586 -247.25830078 286.41357422 C-220.47403677 274.7935466 -194.63607165 260.1486278 -171 243 C-183.15343306 237.88125996 -195.4756971 234.02132304 -208.25 230.8125 C-209.24338379 230.56258301 -210.23676758 230.31266602 -211.26025391 230.05517578 C-221.94527 227.42957285 -232.17651746 225.71401678 -243.1875 225.375 C-244.75854492 225.31699219 -244.75854492 225.31699219 -246.36132812 225.2578125 C-248.90739113 225.16480563 -251.45346963 225.07896716 -254 225 C-250.6751884 222.38253805 -247.82204313 221.1004727 -243.75 219.875 C-242.13351563 219.37613281 -242.13351563 219.37613281 -240.484375 218.8671875 C-213.25938813 212.09146207 -182.86461006 218.28248022 -156.32470703 224.91894531 C-151.57402813 226.14887635 -151.57402813 226.14887635 -147 225 C-144.87136682 223.38477699 -142.87657563 221.75929048 -140.875 220 C-140.29951416 219.50306641 -139.72402832 219.00613281 -139.13110352 218.49414062 C-134.02340578 214.06732755 -128.98778037 209.56134418 -124 205 C-123.48453613 204.52965332 -122.96907227 204.05930664 -122.43798828 203.57470703 C-116.1298332 197.88102443 -116.1298332 197.88102443 -110 192 C-116.04466456 191.2586272 -121.98020138 190.82490725 -128.06640625 190.71875 C-129.32214699 190.69113586 -129.32214699 190.69113586 -130.60325623 190.66296387 C-133.25627387 190.60486082 -135.90935362 190.55186566 -138.5625 190.5 C-150.7346732 190.25865421 -162.85494665 189.87839234 -175 189 C-175 188.67 -175 188.34 -175 188 C-174.14000397 188.00444122 -173.28000793 188.00888245 -172.39395142 188.01345825 C-164.30070721 188.05348445 -156.20749611 188.08395862 -148.1141758 188.10362434 C-143.95302747 188.11407446 -139.79196074 188.12825592 -135.63085938 188.15087891 C-131.61733571 188.17256371 -127.60389067 188.18455937 -123.59031296 188.18975449 C-122.05685564 188.19345811 -120.52340276 188.20069011 -118.98997879 188.21146011 C-116.84690199 188.22591729 -114.70415264 188.2279804 -112.56103516 188.22705078 C-111.33969879 188.231492 -110.11836243 188.23593323 -108.86001587 188.24050903 C-105.8684993 188.29874311 -105.8684993 188.29874311 -104 186 C-116.74312932 184.53452225 -129.43585086 183.49686923 -142.25 182.9375 C-143.14279663 182.89675354 -144.03559326 182.85600708 -144.95544434 182.81402588 C-173.28095925 181.54140527 -201.65091217 181.33150309 -230 181 C-230.83698386 178.54285453 -231.66972424 176.08441143 -232.5 173.625 C-232.73847656 172.92632812 -232.97695312 172.22765625 -233.22265625 171.5078125 C-235 166.2265625 -235 166.2265625 -235 164 C-227.066601 163.85087596 -219.13679327 163.8796671 -211.20300293 163.97509766 C-209.7239459 163.99181665 -208.24485532 164.00577612 -206.76574707 164.01708984 C-178.0825424 164.2439436 -150.28571909 167.84291276 -122.05224609 172.54443359 C-121.37018097 172.65778297 -120.68811584 172.77113235 -119.98538208 172.88791656 C-116.75986852 173.42502861 -113.53596192 173.96974953 -110.31378174 174.52655029 C-109.17334412 174.72033264 -108.03290649 174.91411499 -106.85791016 175.11376953 C-105.86699371 175.28538605 -104.87607727 175.45700256 -103.85513306 175.63381958 C-100.87297945 176.01629081 -98.00324989 176.06315709 -95 176 C-105.62065368 173.30602713 -116.29825599 171.60768356 -127.125 170 C-129.61104175 169.62607128 -132.09686162 169.2507114 -134.58256531 168.87454224 C-136.25127073 168.62331065 -137.92039847 168.3748694 -139.58992004 168.12911987 C-143.55242074 167.54238418 -147.49897226 166.92227568 -151.4362793 166.18408203 C-166.06565406 163.50591483 -180.72357473 163.25231594 -195.5625 162.875 C-199.46918107 162.76624612 -203.37572803 162.65399885 -207.2822113 162.5383606 C-209.69179842 162.46800091 -212.10151907 162.40202096 -214.5113678 162.34127808 C-221.04910574 162.16115101 -227.50367523 161.76443523 -234 161 C-234 160.67 -234 160.34 -234 160 C-187.31132332 155.4383394 -134.26046978 156.79267765 -89 171 C-88.731875 170.401875 -88.46375 169.80375 -88.1875 169.1875 C-87.01205637 167.02220911 -85.72355889 165.72355889 -84 164 C-84 163.34 -84 162.68 -84 162 C-116.85768386 151.20304154 -146.68107604 144.27117204 -181.5 144.75 C-184.08852757 144.77013155 -186.67707057 144.78837034 -189.265625 144.8046875 C-195.51080917 144.84807243 -201.75522573 144.91671926 -208 145 C-208 148.63 -208 152.26 -208 156 C-208.33 156 -208.66 156 -209 156 C-209.98387679 151.94150823 -210.03924323 148.16468745 -210 144 C-196.40643111 141.89142661 -182.7271743 140.79933569 -169 140 C-168.06816895 139.94505371 -167.13633789 139.89010742 -166.17626953 139.83349609 C-140.33796913 138.51984614 -116.68815941 146.61492645 -92.64341736 155.07164001 C-88.46081268 156.53516197 -84.26867964 157.82016041 -80 159 C-52.82261502 125.27482521 -30.55360568 87.4621412 -15 47 C-14.7539502 46.36481445 -14.50790039 45.72962891 -14.25439453 45.07519531 C-8.55950336 30.33591289 -3.12616933 15.5211565 0 0 Z " fill="#F48612" transform="translate(381,50)"/>
<path d="M0 0 C2.65527344 1.25244141 2.65527344 1.25244141 5.359375 2.8515625 C6.88884766 3.74584961 6.88884766 3.74584961 8.44921875 4.65820312 C10.08310547 5.63176758 10.08310547 5.63176758 11.75 6.625 C12.90697352 7.30502178 14.06453713 7.98404047 15.22265625 8.66210938 C17.62665148 10.07067324 20.02805773 11.48350641 22.42773438 12.89941406 C27.92834935 16.1401701 33.4660611 19.31661535 39 22.5 C41.16422521 23.74841588 43.32828719 24.9971148 45.4921875 26.24609375 C50.94599566 29.39264763 56.40165281 32.5359825 61.85766602 35.67871094 C65.0851263 37.53951072 68.31028498 39.40424897 71.53515625 41.26953125 C75.41614945 43.51355433 79.30348033 45.74561807 83.20031738 47.96202087 C85.99134493 49.55166723 88.77618154 51.15211801 91.5625 52.75 C92.59842285 53.33467041 93.6343457 53.91934082 94.70166016 54.52172852 C96.11970947 55.33855103 96.11970947 55.33855103 97.56640625 56.171875 C98.40115479 56.6472168 99.23590332 57.12255859 100.09594727 57.61230469 C102 59 102 59 103 62 C102.29077148 64.44506836 102.29077148 64.44506836 101.12109375 67.33984375 C100.69376953 68.40396484 100.26644531 69.46808594 99.82617188 70.56445312 C99.1387793 72.23411133 99.1387793 72.23411133 98.4375 73.9375 C98.00630859 75.01580078 97.57511719 76.09410156 97.13085938 77.20507812 C94.10647173 84.66106479 90.69882295 91.8560291 87 99 C83.21025669 97.57343605 79.74073221 95.84224358 76.203125 93.875 C75.0886499 93.25625 73.9741748 92.6375 72.82592773 92 C71.63381662 91.33357513 70.4418437 90.666903 69.25 90 C68.3379631 89.49146484 68.3379631 89.49146484 67.40750122 88.97265625 C59.04374576 84.30909231 50.73937456 79.55741943 42.5078125 74.6640625 C35.5149542 70.51377676 28.46082194 66.46737763 21.40698242 62.421875 C16.72121768 59.73382582 12.04080219 57.04764685 7.43359375 54.2265625 C6.473927 53.64769287 6.473927 53.64769287 5.49487305 53.05712891 C3.90090836 52.09142762 2.31707152 51.10906001 0.734375 50.125 C-2.72131063 48.7032322 -4.38929869 49.14580168 -8 50 C-10.70765929 51.22674176 -10.70765929 51.22674176 -13.359375 52.8515625 C-14.37902344 53.44775391 -15.39867187 54.04394531 -16.44921875 54.65820312 C-17.53847656 55.30724609 -18.62773437 55.95628906 -19.75 56.625 C-20.90697352 57.30502178 -22.06453713 57.98404047 -23.22265625 58.66210938 C-25.62665148 60.07067324 -28.02805773 61.48350641 -30.42773438 62.89941406 C-35.9283488 66.14016978 -41.46603409 69.31666323 -47 72.5 C-49.16684034 73.74969892 -51.3335065 74.99969989 -53.5 76.25 C-57.83333333 78.75 -62.16666667 81.25 -66.5 83.75 C-67.57233887 84.36866943 -68.64467773 84.98733887 -69.74951172 85.62475586 C-71.91776264 86.8756448 -74.08605697 88.12645852 -76.25439453 89.37719727 C-81.64717915 92.48798335 -87.03922093 95.60004238 -92.4296875 98.71484375 C-111.48288154 109.7212374 -111.48288154 109.7212374 -121.01092529 115.14997864 C-124.00440143 116.85592815 -126.99251887 118.56988306 -129.96923828 120.30493164 C-135.23140315 123.35621243 -140.45969933 126.27807342 -145.98828125 128.8203125 C-154.31708077 132.32320318 -154.31708077 132.32320318 -159.79296875 138.99169922 C-160.6147866 143.55746696 -160.13810997 147.85160068 -159.37988281 152.3918457 C-158.93026496 155.47877853 -158.74689304 158.54232352 -158.5625 161.65625 C-158.06143739 169.08485253 -156.99946057 176.35132705 -155.75 183.6875 C-155.63851624 184.34317963 -155.52703247 184.99885925 -155.41217041 185.67440796 C-153.53148849 196.65413954 -151.32007934 207.36338217 -148 218 C-147.62069336 219.2159082 -147.24138672 220.43181641 -146.85058594 221.68457031 C-139.70723502 244.39403432 -131.21744947 265.54101619 -119.80883789 286.49072266 C-119.31375732 287.41159668 -118.81867676 288.3324707 -118.30859375 289.28125 C-117.86314209 290.09658203 -117.41769043 290.91191406 -116.95874023 291.75195312 C-116 294 -116 294 -116 298 C-127.47126015 303.62663055 -138.94335213 308.75938592 -151 313 C-165.10047779 290.95829875 -175.04244901 266.72956817 -183.32275391 241.98144531 C-184.19113354 239.44079314 -185.15636728 236.94139643 -186.125 234.4375 C-191.07850435 220.84711627 -193.89089221 206.50035952 -196.54882812 192.31787109 C-196.83805568 190.83198019 -197.14750812 189.34979974 -197.48242188 187.87353516 C-200.84090105 172.7373305 -201.53263461 156.88153594 -202.79522705 141.46124268 C-202.98340019 139.19951931 -203.18506906 136.93944022 -203.39013672 134.67919922 C-203.69057779 131.09785133 -203.89802141 127.52728519 -204.0625 123.9375 C-204.20292725 122.41769531 -204.20292725 122.41769531 -204.34619141 120.8671875 C-204.41592277 117.77132771 -204.27592555 115.82930107 -203 113 C-199.57784095 110.01865692 -195.84307532 107.95879924 -191.81826782 105.93002319 C-188.98665258 104.48168439 -186.26315712 102.85348951 -183.51953125 101.24609375 C-181.28500298 99.97454154 -179.04928614 98.70507618 -176.8125 97.4375 C-174.34182403 96.03234523 -171.87211894 94.62548727 -169.40234375 93.21875 C-168.78224426 92.86582382 -168.16214478 92.51289764 -167.52325439 92.14927673 C-161.29361915 88.60215944 -155.0824978 85.02320336 -148.875 81.4375 C-147.81128174 80.82318115 -146.74756348 80.2088623 -145.65161133 79.57592773 C-143.50690413 78.33707777 -141.3622912 77.09806459 -139.21777344 75.85888672 C-133.81329355 72.73675395 -128.40652588 69.61858796 -123 66.5 C-120.8333225 65.25001878 -118.66665583 64.00001879 -116.5 62.75 C-94.83333333 50.25 -73.16666667 37.75 -51.5 25.25 C-50.42588867 24.62996094 -49.35177734 24.00992188 -48.24511719 23.37109375 C-46.09598426 22.13193074 -43.9456082 20.89492106 -41.79394531 19.66015625 C-36.70898524 16.73858186 -31.63959655 13.79655101 -26.61242676 10.7767334 C-24.23637058 9.35122749 -21.85313376 7.93798164 -19.46923828 6.52563477 C-17.78875017 5.52311693 -16.11882645 4.50295724 -14.44921875 3.48242188 C-13.42957031 2.87978516 -12.40992188 2.27714844 -11.359375 1.65625 C-10.46702148 1.11806641 -9.57466797 0.57988281 -8.65527344 0.02539062 C-5.26497747 -1.28384467 -3.47699506 -0.97847078 0 0 Z " fill="#FDFDFE" transform="translate(254,22)"/>
<path d="M0 0 C7.933399 -0.14912404 15.86320673 -0.1203329 23.79699707 -0.02490234 C25.2760541 -0.00818335 26.75514468 0.00577612 28.23425293 0.01708984 C65.44576936 0.31139351 102.5586313 5.55309017 139 13 C135.69518372 18.82277155 135.69518372 18.82277155 133 21 C131.03915405 21.26464844 131.03915405 21.26464844 128.79443359 21.109375 C127.95683502 21.05974609 127.11923645 21.01011719 126.2562561 20.95898438 C125.35442596 20.89001953 124.45259583 20.82105469 123.5234375 20.75 C122.58269379 20.69134766 121.64195007 20.63269531 120.67269897 20.57226562 C118.7221347 20.45059427 116.77193536 20.32293283 114.82214355 20.18945312 C110.72992663 19.91473879 106.63524389 19.70543536 102.5390625 19.5 C101.75019653 19.45934418 100.96133057 19.41868835 100.14855957 19.37680054 C68.44882621 17.75274479 36.73406498 17.37108569 5 17 C4.16301614 14.54285453 3.33027576 12.08441143 2.5 9.625 C2.26152344 8.92632812 2.02304688 8.22765625 1.77734375 7.5078125 C0 2.2265625 0 2.2265625 0 0 Z " fill="#FAFBFC" transform="translate(146,214)"/>
<path d="M0 0 C1.44399565 3.42948966 0.6293843 5.75480926 -0.68823242 9.12597656 C-0.95611572 9.7650293 -1.22399902 10.40408203 -1.5 11.0625 C-1.91439331 12.06168457 -1.91439331 12.06168457 -2.3371582 13.08105469 C-10.24584091 31.55758426 -24.42340821 44.85849661 -42.81811523 52.60327148 C-45.85398026 53.81600614 -48.91350366 54.92129215 -52 56 C-52.90621094 56.31710937 -53.81242187 56.63421875 -54.74609375 56.9609375 C-57.14996719 57.73786939 -59.54637997 58.39951925 -62 59 C-62.82628906 59.20496094 -63.65257812 59.40992188 -64.50390625 59.62109375 C-74.85083376 61.75523954 -85.49074673 61.1823549 -96 61 C-93.54214633 56.60772447 -90.70215868 53.55408505 -87.0625 50.12890625 C-84.95680879 48.10727535 -84.95680879 48.10727535 -83.625 45.77734375 C-81.57471393 42.56794709 -79.82263788 40.42963439 -75.98242188 39.52441406 C-71.72222038 38.92571185 -67.44748694 38.67943646 -63.15625 38.41015625 C-39.53500478 36.84672944 -20.01229192 24.41260467 -4.69140625 7.140625 C-2.89500483 4.86711928 -1.43681402 2.51332605 0 0 Z " fill="#FAFBFC" transform="translate(373,242)"/>
<path d="M0 0 C1.91395576 0.40805309 3.82801218 0.81563437 5.7421875 1.22265625 C9.83870365 2.10626391 13.92205522 3.03445487 18 4 C18 7 18 7 16.55053711 8.54980469 C14.36170429 10.3046744 12.16120906 12.03945457 9.9375 13.75 C8.80924805 14.67232422 8.80924805 14.67232422 7.65820312 15.61328125 C2.00040234 19.99256601 2.00040234 19.99256601 -2.6796875 20.02734375 C-5.85851408 19.04377741 -8.96284599 18.02336357 -12.0625 16.8125 C-35.78086273 8.10989819 -59.77421013 3.39822967 -85 3 C-81.6751884 0.38253805 -78.82204313 -0.8995273 -74.75 -2.125 C-73.67234375 -2.45757812 -72.5946875 -2.79015625 -71.484375 -3.1328125 C-48.53856717 -8.84354046 -22.62890852 -4.98924811 0 0 Z " fill="#FAFAFB" transform="translate(212,272)"/>
<path d="M0 0 C0.66 0 1.32 0 2 0 C2.495 8.415 2.495 8.415 3 17 C3.33 14.69 3.66 12.38 4 10 C4.66 9.67 5.32 9.34 6 9 C7.3271261 12.9813783 7.06915913 16.85045227 7 21 C7.72703125 20.95359375 8.4540625 20.9071875 9.203125 20.859375 C22.06741393 20.39758001 30.88818337 24.26743434 41 32 C41.66 25.4 42.32 18.8 43 12 C43.33 12 43.66 12 44 12 C44.89115181 20.68873018 45.11624638 29.26860536 45 38 C45.66 38 46.32 38 47 38 C46.98952637 37.22285645 46.97905273 36.44571289 46.96826172 35.64501953 C46.92679718 32.138379 46.90070422 28.63178994 46.875 25.125 C46.85824219 23.90167969 46.84148437 22.67835938 46.82421875 21.41796875 C46.81777344 20.25136719 46.81132812 19.08476562 46.8046875 17.8828125 C46.79421387 16.80402832 46.78374023 15.72524414 46.77294922 14.61376953 C47 12 47 12 49 10 C49.01458252 10.98919434 49.02916504 11.97838867 49.04418945 12.99755859 C49.1020897 16.66182919 49.17932152 20.32547985 49.26245117 23.98925781 C49.2957398 25.57606965 49.32375947 27.16300103 49.34643555 28.75 C49.37991078 31.02916484 49.4322186 33.30723041 49.48828125 35.5859375 C49.49467117 36.29744965 49.5010611 37.00896179 49.50764465 37.74203491 C49.54009648 39.9600456 49.54009648 39.9600456 50 43 C51.485 43.99 51.485 43.99 53 45 C53.34057617 46.87939453 53.34057617 46.87939453 53.29296875 49.1328125 C53.28330078 49.93847656 53.27363281 50.74414062 53.26367188 51.57421875 C53.23853516 52.41597656 53.21339844 53.25773437 53.1875 54.125 C53.16719727 55.39923828 53.16719727 55.39923828 53.14648438 56.69921875 C53.11108219 58.79974837 53.05727401 60.89995293 53 63 C53.58869873 63.17917969 54.17739746 63.35835937 54.78393555 63.54296875 C60.86379623 65.41697134 66.38276282 68.03306679 72 71 C72 73.97 72 76.94 72 80 C71.67 80 71.34 80 71 80 C70.505 76.535 70.505 76.535 70 73 C69.39341553 72.78496826 68.78683105 72.56993652 68.16186523 72.34838867 C52.62416361 66.79515029 37.75107816 60.39010702 23 53 C26.6064473 51.7978509 27.48939296 52.29874858 30.96484375 53.6171875 C31.92970703 53.97683594 32.89457031 54.33648437 33.88867188 54.70703125 C34.89478516 55.09246094 35.90089844 55.47789062 36.9375 55.875 C38.92515968 56.62404731 40.91341875 57.37150648 42.90234375 58.1171875 C43.78398193 58.45347168 44.66562012 58.78975586 45.57397461 59.13623047 C47.70568721 59.89521197 49.79561985 60.49875718 52 61 C52.61220054 56.05968398 52.77741299 51.28737392 50 47 C44.31701404 42.64214631 37.28715978 40.34202909 30.60742188 37.9453125 C28.56851587 37.20611362 26.5644323 36.37071005 24.578125 35.5 C10.49191072 29.63752932 -6.33023233 33.01028111 -20.77416992 35.6640625 C-21.78713135 35.84839844 -22.80009277 36.03273437 -23.84375 36.22265625 C-24.74287109 36.39547119 -25.64199219 36.56828613 -26.56835938 36.74633789 C-29.02436685 37.00254188 -30.67027286 36.76177196 -33 36 C-8.60675573 28.36201634 12.57180428 23.28411999 36.33032227 35.265625 C38.00111703 36.13420284 38.00111703 36.13420284 40 36 C21.62275506 26.08975797 5.10347281 24.5701231 -15 30 C-11.61416398 26.40626177 -8.68678417 24.67385149 -4 23 C-2.68 23 -1.36 23 0 23 C0 15.41 0 7.82 0 0 Z " fill="#EFF1F6" transform="translate(228,127)"/>
<path d="M0 0 C-0.9375 2.0625 -0.9375 2.0625 -3 4 C-4.87916565 4.01509094 -4.87916565 4.01509094 -7.11157227 3.70043945 C-7.9184549 3.59108063 -8.72533752 3.4817218 -9.55667114 3.36904907 C-10.36296967 3.24726288 -11.16926819 3.12547668 -12 3 C-12.69068573 2.90020844 -13.38137146 2.80041687 -14.09298706 2.69760132 C-16.15708842 2.39028494 -18.21717554 2.06309278 -20.27734375 1.73046875 C-21.04639542 1.60819412 -21.81544708 1.48591949 -22.60780334 1.35993958 C-25.05135509 0.97109927 -27.49444829 0.57946856 -29.9375 0.1875 C-31.50712789 -0.06336119 -33.07678921 -0.31401325 -34.64648438 -0.56445312 C-35.82726059 -0.7530616 -35.82726059 -0.7530616 -37.03189087 -0.94548035 C-38.67769417 -1.20696784 -40.32384486 -1.46627666 -41.9703064 -1.72358704 C-46.65397504 -2.45695742 -51.32742408 -3.22854464 -55.99658203 -4.04956055 C-72.67554972 -6.90623601 -89.10006788 -7.80498679 -106 -8.1875 C-109.85966354 -8.2889045 -113.71915796 -8.39495095 -117.57861328 -8.50398254 C-119.94923839 -8.56951248 -122.32001058 -8.63000501 -124.69091797 -8.68437195 C-131.17049517 -8.84721606 -137.56200675 -9.2416222 -144 -10 C-144 -10.33 -144 -10.66 -144 -11 C-98.5998075 -15.43577082 -43.81446275 -15.38228467 0 0 Z " fill="#F3F4F8" transform="translate(291,221)"/>
<path d="M0 0 C0.96120505 2.253715 1.71316149 4.37455563 2.41015625 6.7109375 C2.62312851 7.39370758 2.83610077 8.07647766 3.05552673 8.77993774 C3.50580477 10.23252417 3.95010088 11.68697613 4.38891602 13.14306641 C5.05062266 15.33564421 5.73151272 17.52147764 6.41601562 19.70703125 C8.79738909 27.4058716 10.84170733 35.00445892 12 43 C9.6913769 40.73989086 7.78587763 38.42034024 5.875 35.8125 C1.37134544 29.95393242 -3.96075303 25.19860419 -9.9375 20.875 C-13.43777267 17.69293393 -13.92058762 14.61541496 -14.1484375 9.98046875 C-14.18412217 6.97225137 -14.20075522 4.00199089 -14 1 C-12.36282519 -0.63717481 -10.37517442 -0.39672144 -8.125 -0.625 C-7.24070313 -0.72039062 -6.35640625 -0.81578125 -5.4453125 -0.9140625 C-3 -1 -3 -1 0 0 Z " fill="#F6F7F9" transform="translate(143,214)"/>
<path d="M0 0 C25.11988758 -1.27712499 48.1462575 6.34830146 71.59423828 14.42431641 C72.27136871 14.65549164 72.94849915 14.88666687 73.64614868 15.12484741 C77.65800545 16.5279849 81.41565355 18.18860962 85.17626953 20.16650391 C84.84626953 20.82650391 84.51626953 21.48650391 84.17626953 22.16650391 C77.70191326 20.68355079 71.39544134 18.95594952 65.11376953 16.79150391 C38.55940009 7.75302876 12.68583402 4.53131789 -15.32373047 4.91650391 C-17.91225804 4.93663546 -20.50080104 4.95487425 -23.08935547 4.97119141 C-29.33453964 5.01457634 -35.5789562 5.08322317 -41.82373047 5.16650391 C-41.82373047 8.79650391 -41.82373047 12.42650391 -41.82373047 16.16650391 C-42.15373047 16.16650391 -42.48373047 16.16650391 -42.82373047 16.16650391 C-43.80760726 12.10801213 -43.8629737 8.33119136 -43.82373047 4.16650391 C-29.2925803 1.91249712 -14.67045388 0.86505702 0 0 Z " fill="#EAECF2" transform="translate(214.82373046875,189.83349609375)"/>
<path d="M0 0 C17.30612245 1.30612245 17.30612245 1.30612245 21 5 C21.60621905 11.7383579 21.18947978 17.01972541 18 23 C17.67 22.01 17.34 21.02 17 20 C16.05640625 19.87882812 15.1128125 19.75765625 14.140625 19.6328125 C6.06287311 18.57848745 -1.97407713 17.40491015 -10 16 C-9.67 15.01 -9.34 14.02 -9 13 C0.39605802 12.89268462 9.64087671 13.00736571 19 14 C19 13.01 19 12.02 19 11 C17.94941406 11.01160156 16.89882813 11.02320313 15.81640625 11.03515625 C8.46073519 11.09119946 1.29940004 11.04277143 -6 10 C-5.18957164 8.51969728 -4.37659652 7.04078858 -3.5625 5.5625 C-2.88380859 4.32693359 -2.88380859 4.32693359 -2.19140625 3.06640625 C-1 1 -1 1 0 0 Z " fill="#ECEEF3" transform="translate(333,230)"/>
<path d="M0 0 C6.11491162 -0.06061036 12.22720613 -0.05643921 18.34228516 -0.01660156 C20.83412155 -0.00529167 23.32602737 -0.00508771 25.81787109 -0.01464844 C60.96312406 -0.13635773 95.73939833 5.39042931 130 13 C129.67 13.66 129.34 14.32 129 15 C120.96555186 14.4555304 113.13858193 13.45517717 105.21484375 12.0390625 C70.02441369 6.00713234 35.6876674 3.02899333 0 2 C0 1.34 0 0.68 0 0 Z " fill="#405690" transform="translate(157,212)"/>
<path d="M0 0 C1.20785156 -0.00257813 2.41570312 -0.00515625 3.66015625 -0.0078125 C6.9375 0.125 6.9375 0.125 10.9375 1.125 C11.2675 5.415 11.5975 9.705 11.9375 14.125 C4.6775 14.125 -2.5825 14.125 -10.0625 14.125 C-10.7225 9.835 -11.3825 5.545 -12.0625 1.125 C-7.79818559 0.27213712 -4.30839194 -0.00921581 0 0 Z " fill="#FCFCFD" transform="translate(231.0625,160.875)"/>
<path d="M0 0 C0.33 4.29 0.66 8.58 1 13 C-2.28776042 13.22786458 -5.57552083 13.45572917 -8.86328125 13.68359375 C-12.02590958 13.8867371 -12.02590958 13.8867371 -15 15 C-16.42258812 11.17679443 -17.24042276 8.08718695 -17 4 C-11.29350287 1.73707872 -6.21539617 0 0 0 Z " fill="#F4F5F8" transform="translate(217,163)"/>
<path d="M0 0 C0.33 0 0.66 0 1 0 C1 5.94 1 11.88 1 18 C2.27875 18.391875 3.5575 18.78375 4.875 19.1875 C10.18799327 20.94441987 15.06081605 23.39120347 20 26 C20 28.97 20 31.94 20 35 C19.67 35 19.34 35 19 35 C18.505 31.535 18.505 31.535 18 28 C17.39341553 27.78496826 16.78683105 27.56993652 16.16186523 27.34838867 C0.62416361 21.79515029 -14.24892184 15.39010702 -29 8 C-25.3935527 6.7978509 -24.51060704 7.29874858 -21.03515625 8.6171875 C-20.07029297 8.97683594 -19.10542969 9.33648437 -18.11132812 9.70703125 C-16.6021582 10.28517578 -16.6021582 10.28517578 -15.0625 10.875 C-13.07484032 11.62404731 -11.08658125 12.37150648 -9.09765625 13.1171875 C-8.21601807 13.45347168 -7.33437988 13.78975586 -6.42602539 14.13623047 C-4.29431279 14.89521197 -2.20438015 15.49875718 0 16 C-0.185625 14.845 -0.37125 13.69 -0.5625 12.5 C-1.1235724 8.13610352 -0.69632186 4.33266935 0 0 Z " fill="#E0E4ED" transform="translate(280,172)"/>
<path d="M0 0 C7.98016809 -0.02321255 15.96032197 -0.04096044 23.94051552 -0.05181217 C27.646391 -0.05702153 31.35224332 -0.0640837 35.05810547 -0.07543945 C38.63722332 -0.08633768 42.21631895 -0.0922915 45.79545212 -0.09487724 C47.15812912 -0.09671902 48.52080496 -0.10031549 49.88347244 -0.10573006 C51.7981166 -0.11303249 53.71278333 -0.11340884 55.62744141 -0.11352539 C56.71554108 -0.115746 57.80364075 -0.11796661 58.92471313 -0.12025452 C62.02703394 0.00105712 64.9523429 0.42260995 68 1 C67.67 1.66 67.34 2.32 67 3 C60.02969023 2.88093144 53.05949814 2.75616084 46.08935547 2.62768555 C43.72512037 2.58474916 41.36086241 2.54305131 38.99658203 2.50268555 C25.97322137 2.27947518 12.98976856 2.00633663 0 1 C0 0.67 0 0.34 0 0 Z " fill="#ECEEF3" transform="translate(206,238)"/>
<path d="M0 0 C0.495 0.99 0.495 0.99 1 2 C-2.34240453 0.97395954 -5.4997755 -0.19485515 -8.63671875 -1.7265625 C-25.47241952 -9.76543736 -41.17527193 -7.5777232 -59 -4 C-46.88257094 -19.07289956 -12.43308528 -8.3045417 0 0 Z " fill="#5E70A1" transform="translate(269,163)"/>
<path d="M0 0 C0.9178125 0.00451172 1.835625 0.00902344 2.78125 0.01367188 C5.02090391 0.02533674 7.26041545 0.04170386 9.5 0.0625 C8.18 0.3925 6.86 0.7225 5.5 1.0625 C5.5 1.7225 5.5 2.3825 5.5 3.0625 C-1.43 3.0625 -8.36 3.0625 -15.5 3.0625 C-14.84 6.0325 -14.18 9.0025 -13.5 12.0625 C-13.83 13.3825 -14.16 14.7025 -14.5 16.0625 C-15.16 16.0625 -15.82 16.0625 -16.5 16.0625 C-16.83 12.1025 -17.16 8.1425 -17.5 4.0625 C-20.8 4.7225 -24.1 5.3825 -27.5 6.0625 C-27.17 5.0725 -26.84 4.0825 -26.5 3.0625 C-17.77414387 0.30696649 -9.08221894 -0.08580585 0 0 Z " fill="#2D4585" transform="translate(234.5,158.9375)"/>
<path d="M0 0 C10.98930142 -0.10245333 21.95888009 -0.1101839 32.9375 0.4375 C33.74606445 0.47673584 34.55462891 0.51597168 35.38769531 0.55639648 C39.97749558 0.80726576 44.45976544 1.28057535 49 2 C49 2.33 49 2.66 49 3 C44.43253967 3.02514056 39.86512156 3.04306304 35.29760742 3.05493164 C33.75105079 3.05989112 32.20449866 3.06666077 30.65795898 3.07543945 C20.38775504 3.13218091 10.23936428 2.83654012 0 2 C0 1.34 0 0.68 0 0 Z " fill="#344C8A" transform="translate(157,212)"/>
<path d="M0 0 C5.23880078 0.55145271 9.97350697 1.42922093 15 3 C14.67 3.99 14.34 4.98 14 6 C15.65 6 17.3 6 19 6 C19 6.66 19 7.32 19 8 C11.74 7.01 4.48 6.02 -3 5 C-2.01 3.35 -1.02 1.7 0 0 Z " fill="#CFD4E1" transform="translate(333,230)"/>
<path d="M0 0 C12.87 0.495 12.87 0.495 26 1 C26 1.99 26 2.98 26 4 C16.94361322 4.15178302 8.02417777 3.69037426 -1 3 C-0.67 2.01 -0.34 1.02 0 0 Z " fill="#324987" transform="translate(326,240)"/>
<path d="M0 0 C10.63810404 -0.69758059 20.22716282 3.0018276 29 9 C29.33 9.66 29.66 10.32 30 11 C24.2852853 9.20343092 18.84889009 6.8718267 13.36523438 4.47851562 C8.86003551 2.5720029 4.87473908 1.46884842 0 1 C0 0.67 0 0.34 0 0 Z " fill="#3B528D" transform="translate(240,154)"/>
<path d="M0 0 C0.9178125 0.00451172 1.835625 0.00902344 2.78125 0.01367188 C5.02090391 0.02533674 7.26041545 0.04170386 9.5 0.0625 C8.18 0.3925 6.86 0.7225 5.5 1.0625 C5.5 1.7225 5.5 2.3825 5.5 3.0625 C2.43744039 3.0895491 -0.6248786 3.10936298 -3.6875 3.125 C-4.98397461 3.13756836 -4.98397461 3.13756836 -6.30664062 3.15039062 C-10.50286769 3.16646812 -14.40936886 3.13809038 -18.5 2.0625 C-18.5 1.7325 -18.5 1.4025 -18.5 1.0625 C-12.28829926 0.14090421 -6.27390894 -0.05927385 0 0 Z " fill="#54679C" transform="translate(234.5,158.9375)"/>
<path d="M0 0 C0 0.33 0 0.66 0 1 C-6.11628115 2.83768998 -11.16145766 3.14116794 -17.5 2.625 C-18.32242188 2.56828125 -19.14484375 2.5115625 -19.9921875 2.453125 C-21.99560966 2.31335136 -23.99795503 2.15828133 -26 2 C-26 1.67 -26 1.34 -26 1 C-17.31320899 0.28038418 -8.71700174 -0.14368684 0 0 Z " fill="#BEC6D9" transform="translate(173,209)"/>
<path d="M0 0 C0.33 0 0.66 0 1 0 C1.33 6.6 1.66 13.2 2 20 C1.01 20.33 0.02 20.66 -1 21 C-0.67 14.07 -0.34 7.14 0 0 Z " fill="#BFC6DA" transform="translate(271,139)"/>
<path d="M0 0 C0 0.66 0 1.32 0 2 C-1.74784829 2.36463732 -3.49840502 2.7163078 -5.25 3.0625 C-6.71179688 3.35833984 -6.71179688 3.35833984 -8.203125 3.66015625 C-10.868119 3.98397535 -12.48871723 3.85503199 -15 3 C-13.06643218 2.30151736 -11.12797702 1.61655186 -9.1875 0.9375 C-8.10855469 0.55464844 -7.02960938 0.17179688 -5.91796875 -0.22265625 C-3 -1 -3 -1 0 0 Z " fill="#C1C8DB" transform="translate(210,160)"/>
<path d="M0 0 C0.33 0 0.66 0 1 0 C1.33 3.3 1.66 6.6 2 10 C1.01 10 0.02 10 -1 10 C-0.67 6.7 -0.34 3.4 0 0 Z " fill="#5B6EA0" transform="translate(219,165)"/>
<path d="M0 0 C0 0.66 0 1.32 0 2 C-2.31 2.33 -4.62 2.66 -7 3 C-6.67 2.01 -6.34 1.02 -6 0 C-3.50907189 -1.24546405 -2.58919267 -0.7767578 0 0 Z " fill="#405690" transform="translate(214,162)"/>
</svg>
